<?xml version="1.0" standalone="no"?>
<!DOCTYPE svg PUBLIC "-//W3C//DTD SVG 20010904//EN"
 "http://www.w3.org/TR/2001/REC-SVG-20010904/DTD/svg10.dtd">
<svg version="1.0" xmlns="http://www.w3.org/2000/svg"
 width="1280.000000pt" height="1108.000000pt" viewBox="0 0 1280.000000 1108.000000"
 preserveAspectRatio="xMidYMid meet">
<metadata>
Created by potrace 1.15, written by Peter Selinger 2001-2017
</metadata>
<g transform="translate(0.000000,1108.000000) scale(0.100000,-0.100000)"
fill="#000000" stroke="none">
<path d="M10670 11075 c0 -10 35 -58 116 -160 123 -153 168 -292 167 -515 0
-211 -45 -394 -148 -605 -72 -146 -137 -230 -272 -346 -293 -252 -653 -450
-1135 -624 -371 -135 -748 -233 -1378 -360 -626 -126 -694 -142 -980 -233
-870 -275 -1418 -594 -1658 -965 -141 -219 -259 -575 -281 -854 -31 -392 98
-649 373 -745 114 -39 120 -38 113 17 -4 25 -27 93 -51 152 -55 135 -66 193
-66 357 0 225 43 406 145 611 81 163 170 288 307 430 86 90 124 121 195 161
351 197 709 299 1506 428 957 156 1478 281 2007 483 294 112 490 218 914 492
158 102 331 206 433 260 22 11 22 10 12 -16 -65 -176 -233 -410 -404 -564
-231 -209 -431 -330 -1115 -673 -663 -333 -779 -384 -1240 -542 -313 -106
-463 -171 -588 -250 -73 -47 -142 -113 -142 -136 0 -17 5 -19 33 -13 175 36
931 206 1107 249 1038 254 1726 528 2199 876 494 363 753 810 777 1340 7 150
-10 260 -54 354 -27 57 -99 152 -108 143 -2 -2 -19 -57 -38 -123 -69 -244
-138 -364 -239 -416 l-40 -20 7 29 c4 15 47 125 96 243 162 395 194 509 195
690 0 127 -13 191 -56 288 -57 127 -166 251 -315 357 -71 51 -246 145 -319
171 -27 9 -56 22 -62 27 -7 5 -13 6 -13 2z"/>
<path d="M11550 10104 c0 -3 28 -43 62 -88 165 -214 201 -267 238 -341 55
-113 72 -189 73 -320 0 -359 -169 -705 -518 -1064 -398 -408 -905 -690 -1947
-1082 -49 -18 -86 -34 -84 -36 11 -12 641 59 911 102 769 124 1369 331 1751
606 287 207 578 600 689 933 58 171 68 235 69 406 0 168 -16 256 -68 358 -136
267 -475 460 -912 517 -116 15 -264 20 -264 9z"/>
<path d="M10000 8274 c-305 -185 -633 -305 -1540 -564 -625 -178 -879 -261
-1144 -375 -681 -291 -1038 -666 -1121 -1178 -22 -133 -20 -152 17 -200 60
-78 91 -107 116 -107 13 0 22 3 20 8 -34 66 -40 90 -34 147 3 33 17 96 32 140
14 44 28 100 31 125 5 42 11 50 107 132 461 397 1006 686 2183 1157 541 216
879 372 1123 518 143 86 287 184 308 211 37 48 -7 42 -98 -14z"/>
<path d="M4727 6350 c-145 -23 -459 -52 -932 -85 -778 -55 -1078 -94 -1380
-182 -160 -46 -252 -91 -314 -154 -60 -60 -81 -103 -81 -161 0 -81 39 -138
225 -328 143 -146 181 -191 229 -273 81 -137 145 -275 284 -612 217 -525 427
-1015 605 -1410 211 -470 290 -661 363 -882 71 -215 109 -372 134 -553 48
-341 63 -399 127 -497 101 -154 409 -273 858 -333 652 -88 1622 -9 2231 181
27 8 39 26 102 157 75 156 115 267 136 378 l12 69 73 12 c143 24 224 64 321
159 l65 63 75 -19 c117 -30 233 -47 556 -85 164 -19 350 -44 412 -55 113 -20
275 -68 322 -94 24 -14 24 -14 -25 -23 -94 -15 -381 -8 -585 16 -237 28 -446
31 -543 8 -71 -18 -175 -65 -195 -90 -15 -17 29 -26 368 -77 198 -30 395 -71
428 -89 11 -6 -5 -14 -59 -26 -61 -15 -142 -19 -454 -25 -343 -7 -388 -9 -459
-29 -43 -11 -93 -30 -110 -40 l-31 -20 60 -28 c58 -27 65 -28 230 -28 94 0
239 4 323 9 102 6 152 6 152 -1 0 -18 -41 -63 -70 -78 -33 -17 -172 -35 -285
-36 -44 0 -89 -4 -100 -9 -29 -12 275 -12 475 0 792 49 1574 261 1995 539 140
93 149 101 141 138 -4 18 -25 58 -46 90 -44 67 -60 113 -38 113 24 0 104 -56
131 -91 53 -72 62 -99 62 -199 0 -83 -3 -100 -24 -133 -78 -127 -412 -267
-906 -381 -1049 -242 -2383 -418 -3535 -466 -868 -36 -1271 -27 -2110 51 -858
79 -1633 196 -2415 365 -502 109 -840 225 -990 339 -85 65 -103 103 -104 215
-1 81 17 135 65 197 22 29 116 93 137 93 15 0 -6 -57 -45 -116 -21 -34 -41
-77 -44 -95 -5 -32 -1 -37 58 -80 379 -279 1043 -488 1828 -574 139 -16 741
-33 730 -22 -3 3 -81 10 -174 16 -143 8 -175 13 -214 33 -45 22 -84 69 -70 83
4 4 89 1 190 -6 101 -8 239 -14 308 -13 108 0 133 4 184 25 33 13 61 29 63 35
5 15 -80 52 -162 70 -53 12 -149 17 -405 20 -323 4 -463 14 -519 36 -26 11
-26 11 19 25 78 24 218 51 430 83 196 29 294 45 333 56 16 5 15 8 -7 25 -41
32 -127 67 -204 84 -99 20 -260 19 -472 -4 -337 -38 -451 -44 -567 -31 -101
11 -122 15 -112 23 12 10 143 58 195 71 110 28 282 55 551 86 276 32 514 69
593 93 l45 14 -56 25 c-212 96 -432 100 -879 18 -390 -72 -617 -94 -786 -75
l-69 7 55 25 c78 35 295 99 430 127 299 63 669 102 1213 127 l267 13 -6 50
c-28 241 -259 331 -764 297 -882 -59 -1810 -244 -2223 -444 -125 -61 -208
-133 -279 -241 -171 -262 -12 -524 434 -715 150 -64 314 -117 793 -254 549
-158 785 -210 1285 -282 183 -27 309 -52 495 -99 138 -35 275 -69 305 -75 126
-25 349 -41 765 -56 452 -15 609 -25 800 -51 304 -40 639 -36 1015 11 234 29
427 42 865 55 576 18 642 26 1031 125 190 49 323 76 522 106 549 83 734 124
1332 295 660 190 839 260 1029 402 203 153 260 348 155 529 -99 171 -253 270
-585 378 -428 138 -1290 296 -1619 296 -241 0 -375 -68 -416 -210 -15 -49 -15
-57 0 -88 30 -63 148 -93 364 -93 148 0 435 -49 652 -112 123 -35 270 -89 270
-99 0 -4 -44 -10 -97 -15 -172 -13 -324 5 -868 103 -98 17 -193 26 -315 30
-224 7 -286 -4 -479 -84 -8 -4 11 28 43 70 31 43 82 112 113 154 109 149 157
185 448 343 213 115 400 233 615 386 679 483 996 961 941 1416 -44 364 -252
637 -562 738 -236 77 -400 55 -513 -71 -56 -62 -96 -144 -166 -339 -54 -151
-99 -237 -145 -280 l-27 -25 7 45 c4 25 29 119 56 209 90 298 108 390 109 537
0 99 -7 107 -108 130 -40 9 -83 25 -95 35 l-22 19 25 21 c38 32 104 63 235
109 165 58 222 86 270 134 66 66 83 162 44 243 -99 205 -738 420 -1484 499
-186 19 -619 33 -780 25 -118 -6 -121 -7 -177 -44 -85 -57 -142 -134 -150
-203 -3 -27 -1 -29 47 -36 328 -49 917 -92 1560 -112 154 -5 167 -4 133 9
-109 41 -378 84 -808 130 -358 38 -562 64 -570 72 -6 6 297 -4 540 -18 526
-30 904 -110 1103 -235 69 -43 70 -40 -51 -113 -388 -233 -1109 -330 -2232
-301 -228 5 -734 15 -1125 20 -1140 16 -1472 36 -1863 116 -215 44 -390 104
-452 156 -57 48 -76 121 -48 183 18 41 45 31 114 -42 l63 -68 68 1 c50 0 110
13 228 48 283 83 467 103 1205 131 440 17 584 25 599 34 14 9 -4 179 -25 242
-29 88 -59 97 -237 69z m-2333 -487 c282 -258 583 -378 1026 -409 l105 -7 -45
-15 c-65 -20 -316 -27 -467 -12 -227 21 -409 62 -513 115 -91 46 -190 187
-206 291 -14 96 21 109 100 37z m265 -444 c419 -122 1018 -213 1706 -259 533
-35 1602 -46 2230 -21 389 15 712 29 799 36 39 3 68 3 65 1 -3 -3 -47 -14 -99
-25 -790 -168 -2066 -185 -3540 -46 -755 72 -817 79 -965 121 -139 39 -231 98
-288 184 -23 33 -21 43 4 35 12 -4 51 -16 88 -26z m466 -404 c100 -20 293 -42
490 -55 300 -19 526 -40 639 -60 109 -19 262 -63 281 -81 12 -12 -490 -12
-725 1 -301 16 -675 49 -747 65 -21 5 -23 11 -23 75 0 39 3 70 8 70 4 0 39 -7
77 -15z m205 -301 c442 -84 404 -79 660 -76 146 1 246 -2 267 -9 17 -5 47 -27
64 -47 l33 -37 -390 -3 c-470 -4 -719 14 -862 61 l-37 12 -1 65 c-1 36 0 68 2
72 6 9 63 1 264 -38z m6137 -154 c62 -26 145 -110 173 -174 31 -68 42 -176 30
-270 -18 -126 -57 -223 -142 -350 -66 -98 -286 -309 -508 -487 -113 -90 -246
-205 -297 -255 -82 -82 -99 -94 -160 -114 -172 -57 -339 -144 -487 -254 -147
-108 -361 -333 -524 -551 -18 -25 -15 -11 19 90 81 238 221 538 469 1005 129
242 282 558 344 711 47 115 48 116 89 129 108 32 179 88 327 257 163 186 237
243 363 278 77 22 237 14 304 -15z m-6096 -139 c68 -6 241 -15 384 -21 308
-13 471 -31 590 -65 79 -23 125 -41 125 -48 0 -2 -62 -3 -137 -3 -76 1 -284
-3 -463 -8 -347 -9 -445 -3 -588 35 -116 31 -127 39 -125 90 1 24 2 45 2 45 1
1 21 -2 44 -7 24 -4 100 -12 168 -18z m-29 -270 c145 -25 281 -38 603 -56 335
-20 492 -35 620 -62 29 -6 28 -7 -20 -19 -120 -32 -276 -38 -698 -24 -224 7
-445 9 -491 5 l-83 -7 -27 66 c-23 58 -34 116 -22 116 2 0 55 -9 118 -19z
m453 -331 c419 -18 588 -38 739 -88 60 -19 74 -27 59 -33 -47 -17 -316 -21
-735 -8 l-452 13 -26 29 c-34 40 -49 68 -50 91 0 18 6 18 108 12 59 -3 220
-11 357 -16z m70 -300 c259 -18 630 -52 655 -60 24 -7 23 -9 -21 -29 -25 -11
-70 -26 -100 -33 -72 -17 -347 -16 -636 1 l-232 14 -12 30 c-7 16 -23 43 -37
58 l-24 29 134 0 c73 0 196 -5 273 -10z m195 -281 c179 -11 444 -42 517 -61
l45 -11 -38 -23 c-84 -51 -146 -56 -546 -49 l-366 8 -6 32 c-4 18 -17 54 -30
80 l-24 47 141 -6 c78 -4 216 -12 307 -17z m-185 -304 c54 -13 147 -19 400
-25 349 -8 403 -15 487 -62 21 -12 37 -23 35 -24 -1 -1 -79 -10 -172 -20 -183
-18 -578 -24 -727 -10 -87 8 -88 8 -88 34 0 15 -8 41 -19 58 -10 17 -22 41
-26 54 -8 26 -19 26 110 -5z m285 -335 c63 -5 297 -14 519 -20 222 -5 406 -12
409 -15 8 -8 -97 -52 -163 -70 -83 -21 -242 -34 -580 -45 -195 -6 -291 -6
-294 1 -1 6 -21 30 -42 55 -30 34 -39 54 -39 81 l0 36 38 -7 c20 -3 89 -10
152 -16z m517 -309 c271 -4 495 -10 498 -13 8 -8 -53 -45 -102 -62 -133 -47
-407 -69 -733 -59 l-210 6 0 27 c0 15 -9 39 -20 53 -38 48 -24 72 35 62 22 -3
262 -10 532 -14z m-175 -276 c209 -13 301 -20 571 -42 42 -3 77 -9 77 -13 0
-13 -90 -51 -169 -71 -195 -50 -543 -45 -753 12 l-38 10 0 59 0 60 40 0 c21 0
144 -7 272 -15z m-142 -264 c58 -6 197 -15 310 -21 237 -13 432 -33 544 -57
67 -14 76 -18 62 -29 -30 -22 -168 -53 -286 -65 -230 -23 -574 22 -712 92 -33
17 -38 24 -38 54 0 19 3 35 8 35 4 0 54 -4 112 -9z m165 -331 c423 -69 963
-110 1474 -110 l246 -1 -28 -24 c-76 -67 -314 -95 -802 -95 -370 0 -581 14
-870 56 -55 8 -146 24 -202 35 -90 19 -102 24 -107 45 -4 13 -20 45 -36 71
-17 26 -30 57 -30 69 l0 22 88 -19 c48 -11 168 -33 267 -49z"/>
<path d="M9146 4190 c-475 -289 -714 -576 -805 -969 -12 -51 -20 -96 -17 -99
9 -9 157 48 266 103 107 54 242 139 361 226 52 39 68 57 78 89 17 59 63 105
143 145 70 35 72 36 135 143 82 139 105 201 107 282 2 103 -5 116 -61 124 -27
3 -61 8 -78 11 -24 4 -49 -6 -129 -55z"/>
<path d="M2670 369 c77 -35 289 -105 435 -142 499 -128 1118 -202 1861 -223
255 -7 1280 9 1704 27 475 19 794 77 1020 183 64 30 58 31 -92 11 -146 -19
-482 -50 -723 -67 -294 -20 -1486 -17 -1865 5 -800 47 -1359 100 -2345 222
l-40 5 45 -21z"/>
</g>
</svg>
